<?xml version="1.0" encoding="UTF-8"?>
<svg id="Layer_1" xmlns="http://www.w3.org/2000/svg" version="1.1" viewBox="0 0 1500 1500">
  <!-- Generator: Adobe Illustrator 29.4.0, SVG Export Plug-In . SVG Version: 2.1.0 Build 152)  -->
  <defs>
    <style>
      .st0 {
        fill: #fff;
      }
    </style>
  </defs>
  <path d="M1495.11,742.78c0,407.52-333.69,729.39-741.47,729.39S5.92,1145.83,5.92,738.31,359.29,28.15,767.06,28.15s728.05,307.11,728.05,714.63Z"/>
  <g>
    <g>
      <path class="st0" d="M701.55,252.07c162.11-8.57,321.72,28.26,455.28,108.73,34.96,21.07,68.64,45.33,95,74.75-9.94,7.89-61.53,58.83-70.23,57.52-60.27-53.5-134.69-94.9-214.95-121.33-228.35-75.2-466.36-23.05-640.86,121.49l-68-59.78c116.76-103.06,276.88-172.55,443.75-181.38Z"/>
      <path class="st0" d="M709.89,440.28c151.7-9.72,294.21,35.57,403.23,127.59l-73.55,62.28c-111.72-101.97-294.04-131.19-442.1-76.17-48.91,18.18-88.34,47.8-130.06,75.77l-63.94-55.83c-4-7.38,9.29-15.72,15.33-20.76,76.55-63.89,185.56-106.14,291.09-112.9Z"/>
    </g>
    <path class="st0" d="M784.22,638.26c112.05-2.87,228.63,2.31,274.86,108.63,33.18,76.31,20.33,235.71,11.73,319.57-7.69,74.99-76.63,122.28-155.46,136.94-81.22,15.1-285.98,15.81-363.74-7.46-132.48-39.63-122.04-143.26-124.98-244.42-3.42-117.51-12.51-295.52,170.73-309.05,56.93-4.21,127.88-2.69,186.86-4.21ZM809.21,753.14c-52.05.13-104.72,3.89-156.23,4.07-62.78.22-91.75,13.43-96.05,72.1-4.72,64.43,6.96,129.02,5.78,193.3-.14,7.37-3.62,13.6-2.98,21.84,1.22,15.72,14.13,32.7,29.74,39.96,44.56,20.7,170.2,7.21,224.36,5.22,31.46-1.16,83.47,7.4,106.87-11.05,36.97-29.15,19.8-115.21,19.48-156.16-.26-33.35,5.7-76.95,3-107.75-5.51-62.9-79.19-61.65-133.98-61.52Z"/>
  </g>
</svg>