<?xml version="1.0" encoding="UTF-8"?>
<svg xmlns="http://www.w3.org/2000/svg" viewBox="640 540 320 320" role="img" aria-label="TapForge mini logo">
  <defs>
    <style>
      .st0 { fill: #536fb4; }
    </style>
  </defs>
  <path class="st0" d="M774.56,564.22c56.02-8.03,109.99,9.7,149.88,49.36,4.81-6.29,14.93-12.91,19.14-19.1.43-.63,1.03-.78.73-1.88-3.59-1.38-6.07-5.31-8.98-7.9-2.78-2.47-6.14-5.08-9.09-7.41-80.25-63.47-196.97-56.7-268.41,16.42l19.86,19.86c26.61-25.73,59.84-44.05,96.87-49.36Z"/>
  <path class="st0" d="M789.66,595.81c-32.97,2.3-68.75,17.79-90.54,42.8l19.17,19.17c5.59-4.08,10.55-8.88,16.23-12.86,46.07-32.34,108.98-26.56,148.77,12.86l20.5-19.82c-30.29-30.18-71.28-45.15-114.14-42.15Z"/>
</svg>
