<?xml version="1.0" encoding="UTF-8"?>
<svg id="Layer_1" xmlns="http://www.w3.org/2000/svg" version="1.1" viewBox="0 0 1500 1500">
  <!-- Generator: Adobe Illustrator 29.4.0, SVG Export Plug-In . SVG Version: 2.1.0 Build 152)  -->
  <path d="M1114.1,707.47c22.68-1.69,47.53,1.25,70.44.12,9.86.85,18.87,8.16,18.47,18.66h38.25c.51-28.94-23.26-54.41-52.09-56.29-27.07-1.76-56.04,1.41-83.31,0-29.23,3.99-49.57,26.43-51.38,55.87-1.34,21.71-1.48,54.19,0,75.82,1.79,26.06,20.49,47.24,45.6,53.4,28.59.09,60.66,3.06,89.09.97,20.55-1.51,39.86-15.95,47.73-34.77,1.09-2.61,4.36-12.11,4.36-14.39v-51.75l-1.12-1.12h-90.38v36.75h53.25v13.12c0,5.05-10.14,13.58-15.44,13.81-25.11-1.57-53.21,2.32-77.96.1-11.15-1-16.1-9.57-16.87-19.88-.89-11.91.66-24.19.81-36,.15-11.4-1.6-29.16.15-39.6,1.58-9.41,11.89-14.2,20.42-14.83Z"/>
  <path d="M1034.46,743.34c10.6-34.81-12.69-71.6-49.34-74.84h-94.5l-1.12,1.12v186l1.12,1.12h36.38v-72.38l1.12-1.12h22.5l49.5,73.5h44.62l-48.81-75.3c18.26-6.97,32.66-18.87,38.52-38.11ZM990.7,742.33c-.9.63-6.48,3.42-7.08,3.42h-55.5l-1.12-1.12v-37.5l1.12-1.12h54.75c1.02,0,5.67,2.16,6.89,2.86,12.86,7.33,12.96,25.04.93,33.47Z"/>
  <path d="M1296.38,707.5h106.12v-37.5h-144.75v186h144.75v-38.25h-106.12l-1.12-1.12v-33c0-.13,1.74-1.88,1.88-1.88h84.75l1.12-1.12v-35.25c0-.13-1.74-1.88-1.88-1.88h-84.75l-1.12-1.12v-33.75l1.12-1.12Z"/>
  <path d="M312.51,674.36c-13.96-5.84-46.79-5.74-62.37-4.35-16.57,1.48-33.26,13.32-41.49,27.51-2.33,4.02-7.65,15.84-7.65,20.1v138.38h37.5v-57.38l1.12-1.12h68.62v57.38l1.12,1.12h37.12v-136.12c0-17.38-18.47-39.01-33.99-45.51ZM308.25,759.25h-68.62l-1.12-1.12v-32.25c0-6.88,6.39-15.02,12.88-17.12,6.64-2.15,37.27-2.08,43.97.02,4.79,1.5,12.9,8.98,12.9,14.1v36.38Z"/>
  <path d="M480.76,675.61c-4.36-2.44-15.93-7.11-20.64-7.11h-95.62c-.44,1.63-.79,3.14-.81,4.87-.5,57.27,1.15,114.98.85,172.54-.01,2.56-1.66,5.37.43,7.89l36.29-.05v-70.88l1.12-1.12h57.75c4.97,0,16.84-5.2,21.39-7.86,37.18-21.75,37.07-77.15-.75-98.28ZM468,736.37c-2.01,2.68-9.13,7.88-12.37,7.88h-53.62v-38.25h52.12c13.99,0,22.44,18.91,13.87,30.37Z"/>
  <polygon points="524.25 854.88 525.38 856 562.5 856 562.5 782.88 563.62 781.75 649.5 781.75 649.5 744.62 648.38 743.5 562.5 743.5 562.5 707.5 670.5 707.5 670.5 670 524.25 670 524.25 854.88"/>
  <path d="M32.25,671.12v35.25l1.12,1.12h55.88c-.24.74.75,1.63.75,1.88v146.62h37.5v-146.62c0-.25.99-1.14.75-1.88h56.25v-37.5H33.38l-1.12,1.12Z"/>
  <path d="M822.4,669.97c-28.07-2.2-59.19,1.53-87.57.24-66.55,13.46-45.15,84.39-48.57,133.65,2.79,27.55,24.38,49.66,52.12,52.13,48.73-3.67,119.15,18.19,133.76-46.97-.02-27.64,2.95-58.67.85-86.13-2.01-26.3-23.66-50.8-50.59-52.91ZM834.78,800.16c-.86,9.34-7.03,15.92-16.15,17.6-24.89-1.7-52.75,2.26-77.28.03-8.35-.76-15.42-7.2-16.85-15.4,2.07-24.61-2.8-53.86.09-77.92,1.07-8.93,9.68-16.02,18.5-16.75,23.32,1.17,49.54-2.3,72.53-.2,10.42.95,17.55,7.19,19.14,17.61-1.67,24.15,2.21,51.24.03,75.04Z"/>
  <path d="M755,572.62c56.02-8.03,109.99,9.7,149.88,49.36,4.81-6.29,14.93-12.91,19.14-19.1.43-.63,1.03-.78.73-1.88-3.59-1.38-6.07-5.31-8.98-7.9-2.78-2.47-6.14-5.08-9.09-7.41-80.25-63.47-196.97-56.7-268.41,16.42l19.86,19.86c26.61-25.73,59.84-44.05,96.87-49.36Z"/>
  <path d="M770.1,604.22c-32.97,2.3-68.75,17.79-90.54,42.8l19.17,19.17c5.59-4.08,10.55-8.88,16.23-12.86,46.07-32.34,108.98-26.56,148.77,12.86l20.5-19.82c-30.29-30.18-71.28-45.15-114.14-42.15Z"/>
</svg>